<svg xmlns="http://www.w3.org/2000/svg" xmlns:xlink="http://www.w3.org/1999/xlink" width="10.294" height="9.847" viewBox="0 0 10.294 9.847">
  <defs>
    <clipPath id="clip-path">
      <rect width="10.294" height="9.847" fill="none"/>
    </clipPath>
    <clipPath id="clip-path-2">
      <path id="Combined_Shape" data-name="Combined Shape" d="M.793,7.6A4.923,4.923,0,0,1,6.927.427a.448.448,0,0,1-.365.818A4.028,4.028,0,1,0,8.952,4.926V4.51a.448.448,0,0,1,.9,0v.417A4.923,4.923,0,0,1,.793,7.6ZM4.607,6.138,3.264,4.8A.448.448,0,0,1,3.9,4.162L4.923,5.188,9.531.582a.447.447,0,1,1,.633.633L5.24,6.138a.447.447,0,0,1-.633,0Z" fill="#fff"/>
    </clipPath>
    <clipPath id="clip-path-3">
      <rect width="10.742" height="10.742" fill="none"/>
    </clipPath>
  </defs>
  <g id="check-circle" clip-path="url(#clip-path)">
    <path id="Combined_Shape-2" data-name="Combined Shape" d="M.793,7.6A4.923,4.923,0,0,1,6.927.427a.448.448,0,0,1-.365.818A4.028,4.028,0,1,0,8.952,4.926V4.51a.448.448,0,0,1,.9,0v.417A4.923,4.923,0,0,1,.793,7.6ZM4.607,6.138,3.264,4.8A.448.448,0,0,1,3.9,4.162L4.923,5.188,9.531.582a.447.447,0,1,1,.633.633L5.24,6.138a.447.447,0,0,1-.633,0Z" transform="translate(0)" fill="#fff"/>
    <g transform="translate(0)" clip-path="url(#clip-path-2)">
      <g id="COLOR_black" data-name="COLOR/ black" transform="translate(0 -0.448)" clip-path="url(#clip-path-3)">
        <rect id="Rectangle" width="10.742" height="10.742" fill="#fff"/>
      </g>
    </g>
  </g>
</svg>
