<svg xmlns="http://www.w3.org/2000/svg" xmlns:xlink="http://www.w3.org/1999/xlink" width="9.237" height="11.289" viewBox="0 0 9.237 11.289">
  <defs>
    <clipPath id="clip-path">
      <rect width="9.237" height="11.289" fill="none"/>
    </clipPath>
    <clipPath id="clip-path-2">
      <path id="Combined_Shape" data-name="Combined Shape" d="M1.539,11.289A1.541,1.541,0,0,1,0,9.75V1.539A1.541,1.541,0,0,1,1.539,0H5.645a.511.511,0,0,1,.294.093h0l0,0A.505.505,0,0,1,6.008.15L9.087,3.229a.505.505,0,0,1,.053.063l0,0h0a.511.511,0,0,1,.093.282s0,.008,0,.013V9.75A1.541,1.541,0,0,1,7.7,11.289Zm-.513-9.75V9.75a.513.513,0,0,0,.513.513H7.7a.513.513,0,0,0,.513-.513V4.105H5.645a.513.513,0,0,1-.513-.513V1.026H1.539A.513.513,0,0,0,1.026,1.539Zm5.131,1.54H7.485L6.158,1.752ZM2.566,8.724a.513.513,0,1,1,0-1.026h4.1a.513.513,0,1,1,0,1.026Zm0-2.053a.513.513,0,1,1,0-1.026h4.1a.513.513,0,1,1,0,1.026Zm0-2.052a.513.513,0,1,1,0-1.026H3.592a.513.513,0,0,1,0,1.026Z" fill="#9a9a9a"/>
    </clipPath>
    <clipPath id="clip-path-3">
      <rect width="12.316" height="12.316" fill="none"/>
    </clipPath>
  </defs>
  <g id="file-text" clip-path="url(#clip-path)">
    <path id="Combined_Shape-2" data-name="Combined Shape" d="M1.539,11.289A1.541,1.541,0,0,1,0,9.75V1.539A1.541,1.541,0,0,1,1.539,0H5.645a.511.511,0,0,1,.294.093h0l0,0A.505.505,0,0,1,6.008.15L9.087,3.229a.505.505,0,0,1,.053.063l0,0h0a.511.511,0,0,1,.093.282s0,.008,0,.013V9.75A1.541,1.541,0,0,1,7.7,11.289Zm-.513-9.75V9.75a.513.513,0,0,0,.513.513H7.7a.513.513,0,0,0,.513-.513V4.105H5.645a.513.513,0,0,1-.513-.513V1.026H1.539A.513.513,0,0,0,1.026,1.539Zm5.131,1.54H7.485L6.158,1.752ZM2.566,8.724a.513.513,0,1,1,0-1.026h4.1a.513.513,0,1,1,0,1.026Zm0-2.053a.513.513,0,1,1,0-1.026h4.1a.513.513,0,1,1,0,1.026Zm0-2.052a.513.513,0,1,1,0-1.026H3.592a.513.513,0,0,1,0,1.026Z" fill="#9a9a9a"/>
    <g transform="translate(0 0)" clip-path="url(#clip-path-2)">
      <g id="_Color" data-name="🎨Color" transform="translate(-1.539 -0.513)" clip-path="url(#clip-path-3)">
        <rect id="Rectangle" width="12.316" height="12.316" fill="#9a9a9a"/>
      </g>
    </g>
  </g>
</svg>
